<svg width="29" height="29" viewBox="0 0 29 29" fill="none" xmlns="http://www.w3.org/2000/svg">
<path d="M14.6667 28.3333C22.4907 28.3333 28.8333 21.9907 28.8333 14.1667C28.8333 6.34263 22.4907 0 14.6667 0C6.84263 0 0.5 6.34263 0.5 14.1667C0.5 21.9907 6.84263 28.3333 14.6667 28.3333Z" fill="#252525"/>
<path d="M9 14.1667H20.3333H9Z" fill="#252525"/>
<path d="M14.6667 19.8333L20.3333 14.1667L14.6667 8.5" fill="#252525"/>
<path d="M9 14.1667H20.3333M20.3333 14.1667L14.6667 19.8333M20.3333 14.1667L14.6667 8.5M28.8333 14.1667C28.8333 21.9907 22.4907 28.3333 14.6667 28.3333C6.84263 28.3333 0.5 21.9907 0.5 14.1667C0.5 6.34263 6.84263 0 14.6667 0C22.4907 0 28.8333 6.34263 28.8333 14.1667Z" stroke="white" stroke-width="1.59375"/>
</svg>
