<svg width="31" height="31" viewBox="0 0 31 31" fill="none" xmlns="http://www.w3.org/2000/svg">
<g clip-path="url(#clip0_239_119)">
<path d="M15.6667 29.3333C23.4907 29.3333 29.8333 22.9907 29.8333 15.1667C29.8333 7.34263 23.4907 1 15.6667 1C7.84263 1 1.5 7.34263 1.5 15.1667C1.5 22.9907 7.84263 29.3333 15.6667 29.3333Z" fill="#252525"/>
<path d="M10 15.1667H21.3333H10Z" fill="#252525"/>
<path d="M15.6667 20.8333L21.3333 15.1667L15.6667 9.5" fill="#252525"/>
<path d="M10 15.1667H21.3333M21.3333 15.1667L15.6667 20.8333M21.3333 15.1667L15.6667 9.5M29.8333 15.1667C29.8333 22.9907 23.4907 29.3333 15.6667 29.3333C7.84263 29.3333 1.5 22.9907 1.5 15.1667C1.5 7.34263 7.84263 1 15.6667 1C23.4907 1 29.8333 7.34263 29.8333 15.1667Z" stroke="white" stroke-width="1.59375"/>
</g>
<rect x="1" y="0.5" width="29.3333" height="29.3333" rx="14.6667" stroke="#535353"/>
<defs>
<clipPath id="clip0_239_119">
<rect x="1.5" y="1" width="28.3333" height="28.3333" rx="14.1667" fill="white"/>
</clipPath>
</defs>
</svg>
