<svg width="67" height="19" viewBox="0 0 67 19" fill="none" xmlns="http://www.w3.org/2000/svg">
<path d="M4.24 14.5L0.52 0.499999H3.08L5.7 11.76L8.74 0.499999H11.4L14.34 11.78L16.98 0.499999H19.56L15.74 14.5H12.9L10.02 3.9L7.06 14.5H4.24ZM24.0453 14.74C23.2186 14.74 22.532 14.6 21.9853 14.32C21.4386 14.04 21.032 13.6667 20.7653 13.2C20.4986 12.7333 20.3653 12.2267 20.3653 11.68C20.3653 11.04 20.5253 10.4867 20.8453 10.02C21.1786 9.55333 21.6653 9.19333 22.3053 8.94C22.9453 8.67333 23.732 8.54 24.6653 8.54H27.2053C27.2053 8.00667 27.132 7.56667 26.9853 7.22C26.8386 6.86 26.612 6.59333 26.3053 6.42C25.9986 6.24667 25.6053 6.16 25.1253 6.16C24.5786 6.16 24.112 6.28667 23.7253 6.54C23.3386 6.78 23.0986 7.15333 23.0053 7.66H20.6453C20.7253 6.94 20.9653 6.32667 21.3653 5.82C21.7653 5.3 22.292 4.9 22.9453 4.62C23.612 4.32667 24.3386 4.18 25.1253 4.18C26.072 4.18 26.8786 4.34667 27.5453 4.68C28.212 5 28.7186 5.46667 29.0653 6.08C29.4253 6.68 29.6053 7.40667 29.6053 8.26V14.5H27.5653L27.3253 12.88C27.192 13.1467 27.0186 13.3933 26.8053 13.62C26.6053 13.8467 26.372 14.0467 26.1053 14.22C25.8386 14.38 25.532 14.5067 25.1853 14.6C24.852 14.6933 24.472 14.74 24.0453 14.74ZM24.5853 12.84C24.972 12.84 25.312 12.7733 25.6053 12.64C25.912 12.4933 26.172 12.2933 26.3853 12.04C26.612 11.7733 26.7853 11.48 26.9053 11.16C27.0253 10.84 27.1053 10.5 27.1453 10.14V10.1H24.9253C24.4586 10.1 24.072 10.16 23.7653 10.28C23.4586 10.3867 23.2386 10.5467 23.1053 10.76C22.972 10.9733 22.9053 11.22 22.9053 11.5C22.9053 11.78 22.972 12.02 23.1053 12.22C23.2386 12.42 23.432 12.5733 23.6853 12.68C23.9386 12.7867 24.2386 12.84 24.5853 12.84ZM32.5697 14.5V0.0999994H34.9697V14.5H32.5697ZM38.0478 14.5V0.0999994H40.4478V14.5H38.0478ZM43.6259 14.5V4.42H46.0259V14.5H43.6259ZM44.8259 2.82C44.3859 2.82 44.0193 2.68667 43.7259 2.42C43.4459 2.14 43.3059 1.8 43.3059 1.4C43.3059 0.986666 43.4459 0.653332 43.7259 0.399999C44.0193 0.133333 44.3859 -4.76837e-07 44.8259 -4.76837e-07C45.2659 -4.76837e-07 45.6259 0.133333 45.9059 0.399999C46.1993 0.653332 46.3459 0.986666 46.3459 1.4C46.3459 1.8 46.1993 2.14 45.9059 2.42C45.6259 2.68667 45.2659 2.82 44.8259 2.82ZM49.6994 14.5V3.32C49.6994 2.54667 49.826 1.92667 50.0794 1.46C50.346 0.98 50.726 0.633333 51.2194 0.419999C51.7127 0.206666 52.2994 0.0999994 52.9794 0.0999994H54.1794V2.14H53.3394C52.8994 2.14 52.5794 2.23333 52.3794 2.42C52.1927 2.59333 52.0994 2.9 52.0994 3.34V14.5H49.6994ZM48.2594 6.44V4.42H54.3794V6.44H48.2594ZM58.0655 18.9L60.5255 13.38H59.9255L55.9055 4.42H58.5255L61.5255 11.26L64.3655 4.42H66.9055L60.6055 18.9H58.0655Z" fill="#1B1B1B"/>
</svg>
