<svg width="1265" height="195" viewBox="0 0 1265 195" fill="none" xmlns="http://www.w3.org/2000/svg">
<g filter="url(#filter0_i_240_100)">
<path d="M71.6889 276.785L0.895804 10.3598H49.6136L99.4732 224.642L157.326 10.3598H207.946L263.896 225.023L314.136 10.3598H363.234L290.538 276.785H236.492L181.685 75.0631L125.355 276.785H71.6889ZM448.592 281.353C432.86 281.353 419.792 278.688 409.389 273.36C398.986 268.031 391.247 260.927 386.172 252.046C381.097 243.165 378.56 233.523 378.56 223.12C378.56 210.94 381.605 200.41 387.694 191.529C394.038 182.648 403.299 175.797 415.479 170.976C427.658 165.902 442.629 163.364 460.391 163.364H508.728C508.728 153.215 507.332 144.841 504.541 138.244C501.75 131.393 497.436 126.318 491.6 123.02C485.764 119.721 478.279 118.072 469.145 118.072C458.741 118.072 449.86 120.482 442.502 125.303C435.144 129.871 430.576 136.975 428.8 146.617H383.888C385.411 132.916 389.978 121.244 397.59 111.601C405.202 101.706 415.225 94.0935 427.658 88.765C440.345 83.1827 454.174 80.3916 469.145 80.3916C487.16 80.3916 502.511 83.5633 515.198 89.9068C527.885 95.9965 537.527 104.877 544.124 116.549C550.975 127.968 554.401 141.796 554.401 158.036V276.785H515.579L511.011 245.956C508.474 251.031 505.175 255.725 501.116 260.039C497.31 264.352 492.869 268.158 487.794 271.457C482.72 274.502 476.884 276.912 470.286 278.688C463.943 280.464 456.711 281.353 448.592 281.353ZM458.868 245.195C466.227 245.195 472.697 243.926 478.279 241.389C484.115 238.598 489.063 234.792 493.123 229.971C497.436 224.896 500.735 219.313 503.019 213.224C505.302 207.134 506.825 200.664 507.586 193.813V193.052H465.338C456.458 193.052 449.099 194.193 443.263 196.477C437.427 198.507 433.241 201.552 430.703 205.612C428.166 209.671 426.897 214.366 426.897 219.694C426.897 225.023 428.166 229.59 430.703 233.396C433.241 237.202 436.92 240.12 441.741 242.15C446.562 244.18 452.271 245.195 458.868 245.195ZM610.814 276.785V2.74762H656.487V276.785H610.814ZM715.065 276.785V2.74762H760.738V276.785H715.065ZM821.219 276.785V84.9589H866.892V276.785H821.219ZM844.055 54.5103C835.682 54.5103 828.704 51.9729 823.122 46.8981C817.793 41.5696 815.129 35.0993 815.129 27.4871C815.129 19.6212 817.793 13.2778 823.122 8.45673C828.704 3.38196 835.682 0.844579 844.055 0.844579C852.429 0.844579 859.279 3.38196 864.608 8.45673C870.19 13.2778 872.981 19.6212 872.981 27.4871C872.981 35.0993 870.19 41.5696 864.608 46.8981C859.279 51.9729 852.429 54.5103 844.055 54.5103ZM936.799 276.785V64.0255C936.799 49.3086 939.209 37.5098 944.03 28.629C949.105 19.4944 956.337 12.8972 965.725 8.83733C975.113 4.77752 986.278 2.74762 999.218 2.74762H1022.05V41.5696H1006.07C997.696 41.5696 991.606 43.3458 987.8 46.8981C984.248 50.1967 982.472 56.0327 982.472 64.4061V276.785H936.799ZM909.395 123.4V84.9589H1025.86V123.4H909.395ZM1096.01 360.519L1142.82 255.471H1131.41L1054.9 84.9589H1104.76L1161.85 215.127L1215.9 84.9589H1264.24L1144.35 360.519H1096.01Z" fill="#D9D9D9" fill-opacity="0.01"/>
</g>
<defs>
<filter id="filter0_i_240_100" x="0.895798" y="0.844604" width="1263.34" height="359.674" filterUnits="userSpaceOnUse" color-interpolation-filters="sRGB">
<feFlood flood-opacity="0" result="BackgroundImageFix"/>
<feBlend mode="normal" in="SourceGraphic" in2="BackgroundImageFix" result="shape"/>
<feColorMatrix in="SourceAlpha" type="matrix" values="0 0 0 0 0 0 0 0 0 0 0 0 0 0 0 0 0 0 127 0" result="hardAlpha"/>
<feOffset/>
<feGaussianBlur stdDeviation="3"/>
<feComposite in2="hardAlpha" operator="arithmetic" k2="-1" k3="1"/>
<feColorMatrix type="matrix" values="0 0 0 0 1 0 0 0 0 1 0 0 0 0 1 0 0 0 0.05 0"/>
<feBlend mode="normal" in2="shape" result="effect1_innerShadow_240_100"/>
</filter>
</defs>
</svg>
